<?xml version="1.0" encoding="utf-8"?>
<!-- Generator: Adobe Illustrator 21.1.0, SVG Export Plug-In . SVG Version: 6.00 Build 0)  -->
<svg version="1.1" id="Layer_1" xmlns="http://www.w3.org/2000/svg" xmlns:xlink="http://www.w3.org/1999/xlink" x="0px" y="0px"
	 viewBox="0 0 1366 768" style="enable-background:new 0 0 1366 768;" xml:space="preserve">
<style type="text/css">
	.st0{fill:#A8E075;}
	.st1{fill:#313C47;}
</style>
<g>
	<g>
		<g>
			<path class="st0" d="M340.1,551.9c-6.9-6.9-18.1-6.9-25.1,0l-36.4,36.4c-6.9,6.9-6.9,18.1,0,25.1c3.5,3.5,8,5.2,12.5,5.2
				c4.5,0,9.1-1.7,12.5-5.2l36.4-36.4C347,570,347,558.8,340.1,551.9z"/>
		</g>
	</g>
</g>
<g>
	<g>
		<g>
			<path class="st0" d="M391.6,603.4c-6.9-6.9-18.1-6.9-25.1,0L245.2,724.7c-6.9,6.9-6.9,18.1,0,25.1c3.5,3.5,8,5.2,12.5,5.2
				s9.1-1.7,12.5-5.2l121.3-121.3C398.5,621.5,398.5,610.3,391.6,603.4z"/>
		</g>
	</g>
</g>
<g>
	<g>
		<g>
			<path class="st0" d="M443.1,654.9c-6.9-6.9-18.1-6.9-25.1,0l-60.7,60.7c-6.9,6.9-6.9,18.1,0,25.1c3.5,3.5,8,5.2,12.5,5.2
				s9.1-1.7,12.5-5.2l60.7-60.7C450,673,450,661.8,443.1,654.9z"/>
		</g>
	</g>
</g>
<g>
	<g>
		<g>
			<path class="st1" d="M777.4,217.6c-20.6-20.6-48.1-32-77.3-32c-29.2,0-56.6,11.4-77.3,32c-20.6,20.6-32,48.1-32,77.3
				s11.4,56.6,32,77.3c20.6,20.6,48.1,32,77.3,32c29.2,0,56.6-11.4,77.3-32C820,329.6,820,260.3,777.4,217.6z M752.3,347.1
				c-13.9,13.9-32.5,21.6-52.2,21.6c-19.7,0-38.3-7.7-52.2-21.6c-13.9-13.9-21.6-32.5-21.6-52.2s7.7-38.3,21.6-52.2
				c13.9-13.9,32.5-21.6,52.2-21.6c19.7,0,38.3,7.7,52.2,21.6C781.1,271.5,781.1,318.3,752.3,347.1z"/>
		</g>
	</g>
</g>
<g>
	<g>
		<g>
			<path class="st1" d="M965.6,41.9c-1.6-6.1-6.4-10.9-12.5-12.5c-60.6-16.2-124.8-16.5-185.5-0.8c-9.5,2.4-18.8,5.3-28,8.5
				c-0.8,0.2-1.6,0.5-2.3,0.8c-50.6,18-96.9,47.1-135.3,85.3c0,0,0,0-0.1,0.1c-0.1,0.1-0.2,0.2-0.3,0.3c-0.2,0.2-0.3,0.3-0.5,0.5
				c-0.1,0.2-0.3,0.3-0.5,0.5l-54.3,63.2c-85.4-0.9-168.4,32.8-228.9,93.3c-19.7,19.7-36.7,41.7-50.5,65.5c-2.8,4.8-3.2,10.6-1,15.8
				c2.2,5.1,6.6,8.9,12,10.3l98.5,25.1l-19.3,52.3c-9.5,25.9-3.1,55.1,16.4,74.6l96.7,96.7c13.5,13.5,31.7,20.7,50.2,20.7
				c8.2,0,16.5-1.4,24.4-4.3l52.4-19.3l25.1,98.5c1.4,5.4,5.2,9.8,10.3,12c2.2,0.9,4.5,1.4,6.9,1.4c3.1,0,6.2-0.8,8.9-2.4
				c23.8-13.8,45.9-30.8,65.5-50.5c60.5-60.5,94.2-143.5,93.3-228.9l63.2-54.3c0.2-0.1,0.3-0.3,0.5-0.4c0.2-0.2,0.4-0.3,0.5-0.5
				c0.1-0.1,0.2-0.2,0.3-0.3c0,0,0,0,0.1-0.1c38.2-38.4,67.3-84.6,85.3-135.2c0.3-0.8,0.6-1.6,0.8-2.4c3.2-9.2,6.1-18.5,8.5-28
				C982.1,166.7,981.8,102.5,965.6,41.9z M310.4,344.4c9.5-13.6,20.2-26.4,32.1-38.2c46.4-46.4,107.6-75,172.2-81.5L393.6,365.5
				L310.4,344.4z M390.4,462.3l16.5-44.8l22.9,22.9l-34.6,55.3C388.2,486.2,386.3,473.6,390.4,462.3z M420.8,521.8l34.8-55.6
				l24.1,24.1l-45.2,45.2L420.8,521.8z M459.5,560.5l45.2-45.2l24.1,24.1l-55.6,34.8L459.5,560.5z M532.6,604.6
				c-11.3,4.2-23.9,2.2-33.4-4.8l55.3-34.6l22.9,22.9L532.6,604.6z M688.9,652.5c-11.8,11.8-24.6,22.6-38.2,32.1l-21.2-83.2
				l140.9-121.1C763.9,544.9,735.2,606.1,688.9,652.5z M846.7,368L610.5,571L424,384.5l143.4-166.9c0.1-0.2,0.3-0.3,0.4-0.5
				l59.2-68.9c32.3-32.1,70.7-57.1,112.7-73.5l180.5,180.5C903.8,297.3,878.9,335.7,846.7,368z M932.4,217.3L777.7,62.6
				c51.2-13,104.9-13.5,156.2-1.5C945.9,112.4,945.4,166.2,932.4,217.3z"/>
		</g>
	</g>
</g>
</svg>
