<?xml version="1.0" encoding="utf-8"?>
<!-- Generator: Adobe Illustrator 21.1.0, SVG Export Plug-In . SVG Version: 6.00 Build 0)  -->
<svg version="1.2" baseProfile="tiny" id="Layer_1" xmlns="http://www.w3.org/2000/svg" xmlns:xlink="http://www.w3.org/1999/xlink"
	 x="0px" y="0px" viewBox="0 0 1366 363" xml:space="preserve">
<rect y="0.1" fill="none" width="1366" height="312.9"/>
<text transform="matrix(1 0 0 1 0 246.0156)" fill="#FFC400" font-family="'Righteous-Regular'" font-size="336.4532px">w3</text>
<text transform="matrix(1 0 0 1 452.1 246.0156)" fill="#FFFFFF" font-family="'Righteous-Regular'" font-size="336.4532px">s</text>
<text transform="matrix(1 0 0 1 628.3763 246.0156)" fill="#FFFFFF" font-family="'Righteous-Regular'" font-size="336.4532px">a</text>
<text transform="matrix(1 0 0 1 832.9095 246.0156)" fill="#FFFFFF" font-family="'Righteous-Regular'" font-size="336.4532px">v</text>
<text transform="matrix(1 0 0 1 1006.8861 246.0156)" fill="#FFFFFF" font-family="'Righteous-Regular'" font-size="336.4532px">e</text>
<text transform="matrix(1 0 0 1 1183.4916 246.0156)" fill="#FFFFFF" font-family="'Righteous-Regular'" font-size="336.4532px">r</text>
<g>
	<g>
		<path fill="#FFBC00" d="M1219.6,361.9c2,2,5.2,2,7.1,0l41.4-43.2c1.2-1.3,1.6-3.1,0.9-4.8c-0.7-1.6-2.2-2.7-3.9-2.7h-19.5
			l-0.2-79.6c0-5.3-4.1-9.6-9.2-9.6h-26.7c-5.1,0-9.2,4.3-9.2,9.6l0.2,79.6H1181c-1.7,0-3.2,1.1-3.9,2.7c-0.6,1.6-0.3,3.5,0.9,4.8
			L1219.6,361.9z"/>
		<g>
			<g>
				<path fill="#FFBC00" d="M1219.6,361.9c2,2,5.2,2,7.1,0l41.4-43.2c1.2-1.3,1.6-3.1,0.9-4.8c-0.7-1.6-2.2-2.7-3.9-2.7h-19.5
					l-0.2-79.6c0-5.3-4.1-9.6-9.2-9.6h-26.7c-5.1,0-9.2,4.3-9.2,9.6l0.2,79.6H1181c-1.7,0-3.2,1.1-3.9,2.7c-0.6,1.6-0.3,3.5,0.9,4.8
					L1219.6,361.9z"/>
			</g>
		</g>
	</g>
</g>
</svg>
